<?xml version="1.0" encoding="UTF-8" standalone="no"?>
<svg
   xmlns:dc="http://purl.org/dc/elements/1.1/"
   xmlns:cc="http://creativecommons.org/ns#"
   xmlns:rdf="http://www.w3.org/1999/02/22-rdf-syntax-ns#"
   xmlns:svg="http://www.w3.org/2000/svg"
   xmlns="http://www.w3.org/2000/svg"
   xmlns:sodipodi="http://sodipodi.sourceforge.net/DTD/sodipodi-0.dtd"
   xmlns:inkscape="http://www.inkscape.org/namespaces/inkscape"
   height="720"
   width="576"
   id="svg3171"
   version="1.1"
   inkscape:version="0.48.4 r9939"
   sodipodi:docname="test2.svg">
  <metadata
     id="metadata3317">
    <rdf:RDF>
      <cc:Work
         rdf:about="">
        <dc:format>image/svg+xml</dc:format>
        <dc:type
           rdf:resource="http://purl.org/dc/dcmitype/StillImage" />
        <dc:title></dc:title>
      </cc:Work>
    </rdf:RDF>
  </metadata>
  <defs
     id="defs3315" />
  <sodipodi:namedview
     pagecolor="#ffffff"
     bordercolor="#666666"
     borderopacity="1"
     objecttolerance="10"
     gridtolerance="10"
     guidetolerance="10"
     inkscape:pageopacity="0"
     inkscape:pageshadow="2"
     inkscape:window-width="1605"
     inkscape:window-height="1024"
     id="namedview3313"
     showgrid="false"
     inkscape:zoom="1.0611111"
     inkscape:cx="288"
     inkscape:cy="360"
     inkscape:window-x="0"
     inkscape:window-y="27"
     inkscape:window-maximized="0"
     inkscape:current-layer="svg3171" />
  <path
     style="fill:#5a8006;stroke:#000000;stroke-width:0.50000000000000000;stroke-linecap:square;stroke-linejoin:bevel;stroke-miterlimit:3;stroke-opacity:1;fill-opacity:1"
     d="m 479.3,399.3 c -3.98864,-7.94187 6.45796,-10.01674 7.8,-18 3.24657,-5.27388 8.67649,-1.98794 12.7,-4.5 4.61177,0.92201 10.47391,0.94944 12.8,-0.4 4.83045,2.39132 7.78948,-0.49451 14.4,2.7 8.88074,1.20537 18.47561,1.59059 25.2,8.6 9.91106,7.34174 21.72384,16.02922 21.3,29.7 -1.33244,4.73117 1.96519,9.27667 2.1,13.9 -2.81279,4.83462 -1.84109,11.01442 -4.5,16.3 -5.46233,6.68804 -2.25224,16.0277 -5.2,23.9 0.0802,6.79902 -10.38347,6.24211 -10.7,13.5 -2.06914,2.5936 -6.15327,6.29067 -7.1,6.9 -1.08209,-3.84098 -11.05135,0.80702 -3.4,-0.3 4.37536,-0.0903 -4.35731,6.50371 1.2,7.5 1.14667,5.77504 -7.48019,11.17637 -12.8,12.7 -5.19005,2.98304 -4.35351,-6.53469 -6.5,-0.6 -0.36262,0.34477 -10.49034,1.93603 -7.5,4.6 9.66573,-4.79192 7.38203,13.11996 2,13.8 3.7094,-0.0962 10.17589,-8.12599 11.7,-3.4 -1.93453,0.41359 -3.23532,3.14153 -3.5,1.8 -0.62812,0.42448 -0.37384,3.15051 -3.8,4.6 -0.0851,0.19808 2.96664,0.88786 -2.3,2.3 6.18213,-1.41893 1.66955,2.97508 0.1,1.3 -3.8065,-0.75322 4.17561,2.1319 -1.2,1.8 -5.61378,-0.22704 4.74021,0.98244 0.3,2.1 -1.70523,0.57452 -3.3764,-2.7837 -2.5,-0.3 -1.96617,0.76495 -4.68568,0.80445 -2.9,1.3 -1.58875,2.81575 -5.06154,2.12589 -4.7,0.8 -1.98666,0.61519 -5.65415,-3.80418 -7.3,1 -5.49489,1.19857 -14.76752,-2.01194 -15.9,5.9 -3.84541,3.05564 -7.60673,-1.1682 -10.1,-0.6 -3.27161,1.54239 -7.78388,-3.79369 -3.9,-5.4 -0.7275,-2.28176 6.64686,-1.92582 5.5,-4.8 -4.34634,-1.83934 -4.18317,-10.79454 -11.1,-7.3 -4.57601,1.48104 -8.50629,2.97921 -11,-1.8 -1.81477,-2.41572 -1.61937,-5.44024 -6.3,-5.2 -6.96998,-0.44446 -9.47902,5.25892 -15.5,6.3 -4.11528,1.54977 -9.54394,4.66599 -13.4,0.9 0.93511,7.06284 -4.14514,0.22568 -2.5,-3.3 3.79649,-1.49922 -1.95341,-2.4287 -2.1,-5.9 2.22658,-5.70831 -10.02014,-2.50492 -8.7,-9.5 -3.10683,-1.71473 -6.03846,-6.04055 -0.6,-6.3 -0.82339,4.75654 6.5814,6.23855 8.8,4 3.77705,-1.65734 -2.67261,-7.21228 -6.4,-7.6 -5.28933,-1.52519 -1.2717,-6.53183 0.5,-9.5 -1.18379,-3.51121 0.20776,-7.10446 -0.6,-9.9 3.0953,-2.52981 5.65197,-7.43326 1,-9.1 2.55784,-3.52319 -3.48553,-4.76828 -1.3,-8.1 1.21303,-2.81186 -1.56509,-8.2388 4.1,-6.6 4.44309,5.94525 3.06398,-3.16219 5.3,-5 7.04712,-0.0239 -3.41132,-7.63967 5.1,-8.3 3.62766,-3.55667 7.98496,-8.65998 4.2,-13.2 -5.1748,-0.91038 -0.51762,-7.5652 -5.1,-7.7 -6.24645,2.30655 -0.90725,-5.40432 -3.1,-7.4 3.21092,-0.45013 8.17811,-0.85146 11.1,-3.3 3.49426,2.35833 6.71619,0.61627 9.4,1.4 4.14625,1.34618 7.25614,-3.8552 11.4,-0.7 6.52657,-0.0167 1.75156,-8.86598 8.8,-8.1 3.52219,-0.60218 7.8072,-1.8367 9.7,-5.2 1.83429,-4.25468 -5.70432,-6.45066 -1.9,-8.5 2.46867,-0.0866 7.05377,3.45426 5.1,0.2 -1.44387,-6.27691 3.45312,-5.03428 2.7,0.3 0.21102,1.37709 -0.0981,6.72756 1.1,5.7 z"
     id="pgon1"
     inkscape:connector-curvature="0" />
  <path
     style="fill:#5a8006;stroke:#000000;stroke-width:0.50000000000000000;stroke-linecap:square;stroke-linejoin:bevel;stroke-miterlimit:3;stroke-opacity:1;fill-opacity:1"
     d="m 330.9,321.3 c 1.32104,1.99684 2.48527,5.46239 4.9,7 -1.52589,5.5431 7.66014,4.44575 6,10 7.15846,0.90345 -0.30775,4.43262 3.8,5.3 1.87703,0.13087 4.21404,1.77798 8.3,-0.4 1.89805,-2.06962 5.5532,-3.17611 7,0.3 4.35357,-1.6688 4.54782,-1.91314 7.6,1.3 2.88115,3.01145 12.11157,-10.74859 7.5,-4.7 -0.92934,-0.61336 1.01014,-5.14222 2.5,-6.8 2.45306,-4.30085 8.57288,-0.66843 8.5,-7.8 4.93211,-6.27343 2.82008,2.10839 6.6,1.3 3.87184,0.14014 7.39243,0.96308 7.4,-4 1.30026,-3.5594 7.19429,-2.20525 9.4,-1.4 -2.64189,6.7557 4.03228,6.46171 8.5,4.1 1.89364,-1.4768 0.29295,-5.67367 5.6,-5.2 3.01714,-4.70215 -6.60599,-1.86393 -4.7,-3.3 2.49967,-4.30025 5.7292,-1.12651 9.9,-1.8 2.32818,-3.50676 1.08964,-8.30048 5.6,-4 0.55662,2.47839 6.47925,2.48231 2.2,6.8 0.77681,3.45165 2.13744,6.5446 4.7,8.9 4.67743,4.66729 2.89973,-2.76512 4.8,-4.3 -0.11137,-5.67855 4.66422,-1.12253 7.3,-5.1 10.95884,2.39112 13.92038,14.89346 17.9,24.4 6.0079,9.24034 6.99678,23.18434 1,31.8 -4.60028,2.81075 -8.45825,4.5108 -12.3,9.6 -5.08491,5.30311 -5.14463,4.71271 0.4,0.4 2.09965,-1.53275 -1.3632,5.04948 1,1.8 0.56867,-4.04641 9.66217,-7.50747 4.5,-3 -5.69184,3.16423 -3.14227,5.47708 0.5,1.7 1.31325,3.37807 -2.61547,0.58086 1.2,5.9 -1.53746,5.72532 4.73228,5.56247 3.6,9.3 1.17846,2.27751 -2.66649,6.66451 -7,6.7 -3.84936,0.64065 -8.94576,1.83205 -7.3,6.8 -3.76776,4.59046 -9.59751,-1.60624 -13.1,3.3 -3.30801,-2.52484 -6.26496,1.09962 -9.2,-1.4 -4.39467,-1.69746 -8.07022,3.93867 -12.8,2.3 -0.10291,1.75024 -2.01071,6.989 0.3,8.4 5.63163,-3.16542 3.49044,4.24162 5,5.7 5.55852,2.21505 4.06681,10.39142 -0.8,12.3 -0.64212,4.40037 -8.43354,2.97745 -4.3,7.7 3.86289,3.2591 -7.02023,3.11098 -3.3,8.3 -1.27476,4.85187 -7.36451,-4.70644 -8.1,1.6 2.76771,6.44111 -5.86251,8.86348 -8.9,11 -2.07832,1.44922 -3.7572,3.25045 -6.7,4.5 1.29562,2.68111 4.79094,5.75148 1.7,7.6 -0.48742,3.67424 -5.67008,4.18278 -5.3,-0.9 0.18504,-2.64484 -6.70234,-1.16926 -6.9,-0.2 -3.23118,0.59964 -8.46515,2.83922 -6.1,6.4 -2.25116,3.59916 -8.8016,4.06327 -10.9,2 0.64973,-3.23577 -2.25982,-7.80275 -2.2,-9.9 0.53348,-2.21086 7.23137,-1.59239 1.4,-5.7 -4.62045,-3.66363 -1.43208,-7.26923 2.4,-8 -3.51626,-4.30044 0.13787,-3.93712 2.7,-7.2 -0.78175,-4.14046 -0.0633,-5.58327 -3,-7.8 3.58484,-1.7528 7.76668,-2.2031 3.8,-6.8 -3.76199,-10.36645 -14.08179,-14.5674 -22.3,-20 -3.40357,-2.58397 -2.55734,-6.00472 -1.5,-9.2 -2.06504,-3.90417 -4.73391,-4.06022 -7.5,-5.4 -2.02978,-2.21842 -4.34795,-3.97503 -0.9,-7.6 1.78579,-0.62194 7.05504,-0.89955 4.3,-5.2 2.10206,-4.33063 -7.70356,-3.91159 -9.6,-5.2 -2.88667,-2.17494 -6.64548,-0.5051 -6.8,-5.6 0.29791,-2.87296 1.26062,-7.40359 5.7,-8.9 1.03363,-4.41382 -2.89981,-7.46891 -1.7,-11.9 -2.82179,-3.57109 -1.92716,-9.98851 -8.3,-10.4 -4.55336,-3.04929 -4.24023,-1.15774 -6.1,-5.4 -1.2541,-4.86457 0.98619,-11.17351 -2.1,-14.2 5.66362,-1.59448 -1.87441,-6.21248 2.5,-7.9 1.34406,-2.93511 0.20749,-7.73377 4.8,-7.1 -0.567,-5.81388 4.86302,-2.42946 6.9,-0.8 z"
     id="pgon2"
     inkscape:connector-curvature="0" />
  <path
     style="fill:#5a8006;stroke:#000000;stroke-width:0.50000000000000000;stroke-linecap:square;stroke-linejoin:bevel;stroke-miterlimit:3;stroke-opacity:1;fill-opacity:1"
     d="m 423.2,548.5 c 1.3549,-4.80735 2.0881,-9.21751 0.1,-13.8 -0.84466,-5.76864 2.39761,-1.32644 5.8,-2.2 4.02713,-0.37678 7.75933,-3.08973 11.3,-3.7 3.71345,-2.66741 8.16502,-6.59618 13.9,-4.5 4.12087,-0.3894 2.49574,5.09101 5.3,6.1 3.562,5.7208 10.19858,-3.06305 15.9,0.6 0.36856,3.41647 4.97734,5.87681 5.5,8.5 -4.43319,1.291 -4.8675,1.90564 -6.8,4 -0.42437,3.29445 -2.1198,6.6861 -5,9.8 1.38162,4.63423 -0.99324,8.77773 -4.3,12.6 0.83764,5.00479 -6.4114,-0.77786 -5.3,0 -2.03251,-6.82576 -6.62015,1.18989 -9.4,2.8 -2.57296,-1.16336 -2.87544,-8.32308 -6.7,-4.6 0.86613,-4.86532 -4.77468,-7.13422 -6,-0.9 -4.53264,3.65592 2.50368,-6.38671 -2.8,-7.1 -3.05785,-1.05052 -5.82725,-2.91936 -8.1,-4.2 0.85547,-2.60407 -3.8702,-1.48719 -3.4,-3.4 z"
     id="pgon3"
     inkscape:connector-curvature="0" />
  <path
     style="fill:#5a8006;stroke:#000000;stroke-width:0.50000000000000000;stroke-linecap:square;stroke-linejoin:bevel;stroke-miterlimit:3;stroke-opacity:1;fill-opacity:1"
     d="m 242.3,330.5 c 2.58005,-0.58897 2.81959,-3.8066 3.8,-2.5 3.95487,0.66077 5.2321,0.74895 1.6,-4 0.68618,-3.60591 -8.40563,-6.31525 -3,-5.7 -0.44662,-3.24801 3.12754,-9.59135 4.5,-13.7 -1.70533,2.11129 -0.35418,-3.70836 -1.9,-5.6 0.47515,-7.22429 1.87355,-14.40152 1.5,-22.2 -1.56129,-5.56857 2.95627,-4.08259 5.2,-6.6 0.92512,-3.4443 5.59403,-6.80044 5,-10.5 6.53606,-2.04607 -0.41784,-2.70974 -2.4,0.9 -2.37799,4.34184 -6.26288,-9.84171 -5.1,-2.2 -0.27213,4.72314 -1.0054,-1.06471 -2.2,0.5 -1.17979,4.7166 1.19773,-8.91369 -1.4,-0.7 -0.82882,7.57631 -2.71208,-4.51469 -0.9,-4 -2.97352,3.22738 -0.34685,5.69829 -4.3,6.3 -5.29713,4.72504 -7.04994,-6.5528 -9.1,-10 -1.31992,-2.84918 -2.88185,-7.33194 -5.4,-11.5 -3.39546,-5.05868 -2.84575,-11.67808 -6.4,-16.4 -2.68524,-4.85609 -8.65858,-10.07091 -9,-14.7 6.12445,-5.14588 1.1221,-14.97579 7.8,-20.1 1.43916,-3.53301 7.3747,-8.54176 4,-9.7 0.34288,-2.86756 -1.55922,-3.60963 2.4,-7.1 2.47315,-2.71765 8.48047,-8.66084 6.6,-10.4 -0.69003,-1.9713 7.75479,-2.39591 10.5,-0.6 2.21682,-1.78589 5.93567,-0.93136 7.2,-4.5 2.89845,-2.9852 -1.95898,-8.35366 3.9,-6.3 5.0267,-0.27995 7.03355,-5.34927 10.8,-8.1 0.7364,-2.41233 7.3718,-3.41102 8.8,-7 0.33009,3.48497 2.41839,6.84279 5.6,7.8 1.47339,3.62415 8.33067,7.37902 6.7,4.6 1.2184,4.17734 -0.51217,5.13676 -4.8,6.9 -0.39278,4.19753 -2.46196,5.42004 0.4,8.9 2.13848,2.76532 -5.1223,5.93581 -0.8,9.4 -1.66655,5.37996 5.95332,6.61267 8.1,2.1 3.60765,-4.80819 3.831,2.44328 7.9,3.9 3.52858,4.72954 -6.38697,13.03048 2,15.3 -1.48807,3.13254 -2.58254,7.08486 1.8,9.6 4.23986,3.89698 8.47229,7.06513 6.1,13.4 -3.07418,1.35484 -10.67697,0.73094 -8.5,7 1.28175,3.12449 -7.46316,4.46241 -1.2,7.5 -0.74736,2.23599 1.53535,10.09186 -2.2,9.6 -2.45322,0.23088 -5.71026,1.80678 -8.1,3.3 -2.35651,4.75007 -9.10449,8.3932 -3.4,12.7 5.50561,0.57483 2.08959,9.0094 8.1,6.2 4.73048,-1.40967 1.91666,6.07155 4.8,5.7 2.29553,3.34561 6.5009,0.1368 7.8,3.4 1.60696,0.367 2.86083,4.46807 6.4,5.6 -0.29149,4.36422 5.78041,5.75555 3.6,9.6 -6.76184,1.85708 -3.59578,9.0504 -7.5,12.3 1.13291,3.82169 3.75849,6.46957 7.8,3.8 0.2724,6.38934 5.54361,10.78478 9.5,15.8 -0.39877,5.04586 -4.02055,2.74027 -5.2,6.9 0.99354,4.07103 -4.60013,5.71969 -0.5,8.4 -3.2226,3.78194 -0.6152,4.70175 -1,9 0.25639,3.38748 0.0364,8.41728 2,10.9 -0.50678,4.37872 -4.45193,3.77667 -7.2,6.3 -4.51796,-2.32217 -3.18389,0.97172 -6.8,4 -2.71775,5.82511 -8.40395,5.31218 -11.8,8.8 -2.904,1.85287 1.24138,8.09422 -4.9,7.6 -0.26152,5.90558 -6.74784,-1.23087 -6.7,4.3 -3.34815,-1.21347 -4.08428,-3.14243 -6.9,-5.3 -3.86827,0.97867 -6.47811,1.39037 -10.3,-0.1 -4.75635,0.99493 -4.70641,-6.5099 -5.3,-7.8 -2.78304,-1.74556 0.82678,-7.19005 -2.6,-5.5 -3.98987,-1.73845 -7.44271,-5.74787 -1.2,-6.5 1.11378,-5.55857 -7.16075,-8.71567 -11.3,-10.7 -2.751,-4.32493 -7.6543,-6.9136 -7.9,-11 -2.23481,-7.45878 -5.85753,-11.32784 5,-7.3 z"
     id="pgon4"
     inkscape:connector-curvature="0" />
  <path
     style="fill:#5a8006;stroke:#000000;stroke-width:0.50000000000000000;stroke-linecap:square;stroke-linejoin:bevel;stroke-miterlimit:3;stroke-opacity:1;fill-opacity:1"
     d="m 238.3,444.3 c -7.2209,-2.42629 -1.26487,-8.45203 3.5,-9.1 3.19197,-1.39161 7.24515,0.053 7.5,-3.3 3.76571,-0.41711 0.78939,-9.89889 -2.6,-3.7 -1.0909,1.04733 -6.50868,5.15753 -3.7,1.1 -3.45606,-4.53418 1.97295,-6.14903 3.8,-9.5 -1.32451,-1.64672 2.03146,-4.40356 2.2,-7.9 -0.66234,-5.06884 7.21449,0.554 3.6,-3.6 -2.82968,-1.78322 -3.09462,-4.79234 -6.8,-4.6 -0.11922,-3.83146 -5.44161,-0.0126 -6,-4 0.5359,-3.93957 2.9793,-6.09001 1.6,-9 3.15185,-0.89556 2.54641,-5.80968 7.3,-4.2 2.39847,-3.75672 4.57877,-5.09775 7.4,-1.1 4.21164,-3.76972 7.42433,3.02483 9.3,4.3 3.36345,-2.3346 5.68798,-3.90404 4.2,-8.2 2.02853,-2.36895 7.57512,-2.92494 8.9,0.1 0.73985,2.9358 5.65803,3.26614 5.7,0.4 3.77021,3.28531 6.82825,-2.33006 9.5,-4.2 -2.43793,-4.10344 1.98133,-6.17362 5,-7.9 4.90463,-0.61344 9.00795,-7.20797 11.2,-11.4 2.90183,4.14979 6.28523,-1.61137 9.4,-1.9 1.32722,-5.14693 5.81008,0.80852 9.4,1.8 3.01692,2.73951 3.19333,7.13643 4.4,10.4 -0.21608,4.56123 4.82686,9.17132 -1,12.3 -1.9086,1.67398 -3.77766,5.8645 -2.6,8.3 1.07554,3.86141 5.58175,2.50633 8.6,5 3.66105,-0.80441 9.53744,2.28219 8.1,5.7 0.77175,4.769 -6.62063,1.39701 -6.5,6.8 -0.61694,2.83865 2.84492,4.71619 4.7,5.9 2.7168,-1.15 7.37874,5.53228 4.1,7.3 0.70163,10.68174 17.54793,10.44001 21.8,20.7 2.46954,4.07549 8.34597,10.93643 0.5,11.4 -2.76453,2.65079 3.85754,2.84157 1.5,7.1 0.33739,4.63104 -6.88423,4.02401 -2.2,9.1 -6.21971,-0.13757 -4.87345,6.85986 -9.4,8.9 4.87503,3.61166 -1.41444,0.48664 -4.1,0.6 -0.0425,2.44865 -4.40734,2.72125 -3.3,7.2 -0.84254,4.92361 -2.1585,7.31639 -6,8.5 -0.20792,3.97494 -8.31951,-1.91369 -3.7,-4.2 4.88424,-4.88511 -4.7354,-0.24381 -3.3,-4.8 -2.94104,-1.4881 -1.89971,-4.33317 -4.7,-5.4 -3.1315,-2.30131 -3.73002,5.04579 -7.5,3.3 0.0547,1.50887 5.35395,8.37673 0.3,6.4 -3.37479,-4.39041 -9.28871,-2.22225 -12.6,1.5 -2.01067,-3.74296 -9.17391,3.04972 -6.4,-2.9 4.0458,-3.09382 -6.20875,-2.46913 -2.7,2 2.1019,2.80081 -4.68771,1.53129 -6.2,4.8 -5.3632,1.7173 -3.3025,-8.9508 -8.8,-4.5 -1.64155,4.62886 -5.96725,-5.84034 -6.3,0.7 -1.15698,2.84681 0.32629,4.75306 1.3,8 4.64647,4.81491 -3.60504,4.77402 -5.5,7.7 -3.39112,-0.24204 -4.18304,1.34334 -7.6,3.8 -2.27112,-3.22341 -8.09665,0.27636 -8.1,-5.7 -2.56431,-2.74324 -9.53051,-7.43649 -6.6,-5.7 -1.91619,-1.50744 -7.4041,5.06776 -8,0 -2.59632,-1.73626 -6.67364,-7.58228 -7.4,-11.5 0.84573,-3.30339 -3.92932,-6.93051 -0.8,-9.7 -6.3747,-1.42577 5.37175,-4.86742 1,-4.6 -2.61778,-2.09729 1.7611,-8.30355 1.6,-7.4 0.41011,-3.25126 4.81146,-4.402 7.5,-5 0.21019,-0.20938 -5.06136,-1.48361 -2.5,-5.7 4.92887,-1.63849 2.33503,-5.40288 -2.1,-3.1 -3.4523,-0.97779 -7.48774,-4.72522 -9.9,-7.3 z"
     id="pgon5"
     inkscape:connector-curvature="0" />
  <path
     style="fill:#5a8006;stroke:#000000;stroke-width:0.50000000000000000;stroke-linecap:square;stroke-linejoin:bevel;stroke-miterlimit:3;stroke-opacity:1;fill-opacity:1"
     d="m 456,308.8 c -4.45744,-2.74468 -12.09816,-1.31534 -13.2,-3 -5.03511,-3.69431 -7.92903,-14.79078 -15.3,-8.3 -2.9533,-0.89361 -8.01816,2.49286 -2.6,1.8 4.2712,-1.4316 9.2577,-3.03322 10.4,3 4.15974,7.70399 13.95529,8.39279 18.7,14.9 -1.90242,4.21215 -7.33535,-0.0804 -7.2,5.5 -0.96814,2.17548 -0.98293,9.19131 -4.7,3.8 -2.86691,-2.36085 -6.2453,-7.77593 -2.6,-12.1 -3.00304,0.0386 -5.53216,-5.73748 -8,-4.8 1.12338,5.64586 -5.64006,7.17706 -8.6,4.4 -3.30281,3.49027 -4.31704,3.68585 0.7,3.4 5.49135,4.04567 -7.61229,2.66601 -3,7.2 -4.54057,3.18934 -13.56295,4.20597 -10,-3.8 -4.85663,-0.51928 -9.56633,-0.9582 -10.2,4 -0.70802,4.46986 -6.46499,0.90928 -9.4,1.8 2.39174,-6.23148 -5.10723,-2.41803 -5.1,2.1 -0.86227,3.67 -7.56167,0.9869 -8.5,5.6 -1.14537,3.86869 -1.66453,8.87266 -1.9,6.9 -2.85767,4.65013 -8.64323,4.5513 -10.5,0.3 -2.99832,3.55535 -7.58358,0.47004 -7,-0.3 -3.07195,0.64198 -7.67138,4.93745 -10.3,2.6 -3.85823,0.72482 -3.39518,-1.99904 -2.6,-3.9 -5.17392,-0.82339 -1.80391,-5.58504 -6.4,-6.6 -3.94065,-0.71794 -1.5033,-5.95164 -5,-7.1 -2.06591,-2.736 -1.76691,-5.40323 -5.4,-6.7 -4.57342,-0.66601 -8.39029,-6.99965 -11.4,-11 -0.60644,-3.68406 -1.31717,-7.04658 -5.4,-4.5 -3.79305,-1.338 -4.63341,-6.29587 -1.3,-9.7 -3.13414,-5.8893 10.20557,-7.43208 3.7,-12 -1.3226,-2.85229 -3.50809,-7.59949 -7.2,-8.4 -0.78332,-3.35874 -2.37393,-4.08009 -5.4,-4 -3.85761,-0.60663 -5.64291,-2.56945 -6,-5.3 0.53908,-5.85952 -9.65139,1.76237 -6.9,-5.9 -4.45066,-2.05455 -9.17697,-7.39809 -3.8,-10.7 2.58231,-3.46719 3.98804,-6.62224 8,-6.7 1.95962,-2.58129 7.04772,0.60336 5.1,-5.3 2.09598,-3.63418 -1.44153,-11.09164 -1.5,-9 6.17587,-1.518 -0.0213,-9.41476 6.8,-10.1 4.5081,0.38946 9.02442,-2.23031 13.1,-3.1 3.77919,3.5945 11.38582,3.31837 12.1,-2.6 3.65578,1.58735 5.42517,0.89245 5.6,-3.5 3.60138,-0.12813 7.97783,-1.19694 9.5,2 3.30886,-1.76582 5.379,8.53939 7.2,3.3 1.03584,-1.52948 3.53589,5.35137 3.9,2.1 -1.89844,-5.94198 -0.0418,-2.72996 3.1,-1.9 1.61477,-3.57005 2.36979,3.53629 5.2,1.3 4.04904,-1.95371 6.23234,-6.19021 11.7,-3.6 3.81844,-0.33906 7.39197,-0.019 11.6,0.3 2.51288,0.27608 9.10959,2.28756 7.7,-1.8 -0.38607,-5.41565 6.20114,-6.79573 7.3,-2 3.92973,-1.69394 4.68458,5.38609 9.7,4.2 3.84171,1.98282 3.57238,6.27768 5.9,8.7 6.08732,5.12526 5.45719,12.52772 9.3,17.6 1.56238,2.10549 8.90914,2.69345 5.6,5.3 0.93702,6.74192 13.09337,4.94892 13.1,10.3 -10.81868,0.15139 -8.65047,13.32427 -4.9,20.1 4.44332,13.67599 18.52345,22.18823 22.1,36 -3.39176,6.10859 -1.05996,-0.0771 -4.9,-0.3 0.30312,-0.90235 -0.64455,-0.27899 -0.9,-0.5 z"
     id="pgon6"
     inkscape:connector-curvature="0" />
  <path
     style="fill:#5a8006;stroke:#000000;stroke-width:0.50000000000000000;stroke-linecap:square;stroke-linejoin:bevel;stroke-miterlimit:3;stroke-opacity:1;fill-opacity:1"
     d="m 519.8,607.2 c -9.02914,-2.32586 -12.39878,10.12635 -21.5,9.1 -6.73272,2.02758 -13.69992,3.57142 -17.2,10.2 -0.55869,3.01494 -5.02392,4.4143 -8.7,1.4 -4.99269,-1.30006 -7.90231,-3.29163 -13,-4 -5.01774,-2.21257 -5.49808,-0.38498 -9.6,-3 -9.41911,-2.51134 -17.94354,4.14574 -27.5,2.9 -6.68555,1.65308 -14.72475,2.19556 -17.7,9 -3.21564,-4.82539 -12.14385,-7.15341 -15.6,-6.2 -0.29374,-0.48828 -5.20807,0.0157 -8.2,0 -4.26212,1.04169 -7.46319,-4.98613 -12.5,-5.8 -5.34165,-4.09497 1.9936,3.07744 -1.6,3.4 -3.80405,4.89533 -11.03196,3.53094 -15.7,9.4 -0.7959,3.28496 -4.29417,-1.51641 -7.4,-1.4 -2.28754,-1.63201 -5.15427,-1.31699 -6.3,-3.1 -1.0185,-2.46576 -5.3234,0.0953 -4.7,-5.5 1.42482,-3.70517 0.41178,-5.80025 -3.3,-5.8 -0.65629,-3.44258 5.48605,-5.73102 0.8,-7.7 -3.06251,4.40992 -7.2839,-6.22161 -7.7,-5.7 3.72565,-4.8598 5.6009,1.64185 7.3,-2.7 3.13142,2.90891 9.44815,2.59802 12.9,6.8 5.20696,-0.51295 4.91508,-7.73029 3.7,-6.3 2.29203,-1.35207 -3.20012,-4.54105 -1.4,-8.9 1.20119,-4.36343 -3.03841,-4.66716 -2,-8.8 -1.89244,-3.6372 -3.20185,-6.98319 1.9,-6.9 0.0898,-5.61817 6.17682,-1.35155 7,-4.5 -0.76566,-2.00166 0.74524,-4.7766 0.2,-8.4 5.59836,1.25108 0.66663,-5.30286 -2,-7 -3.27383,-2.4033 5.25472,-3.23676 0.8,-6.5 -3.21014,-3.82 -2.60427,-6.71613 -5.5,-9.3 -1.12884,-4.32128 -6.52766,-2.73656 -4.3,-7.5 4.22825,-2.25478 -4.13793,-6.43293 0.3,-8.9 4.24863,1.91062 -2.87816,-3.9368 -1,-6.5 -3.36782,-4.17437 1.96873,-5.37125 0.3,-9.8 -0.16715,-3.76076 1.9173,-6.11893 3.5,-8.5 1.85332,-3.64883 -1.06104,-4.70324 -2.1,-8 2.88335,1.91943 4.10852,2.89998 7.9,0.1 0.94358,-1.54557 3.41105,-4.1765 3.5,-8.2 -0.72512,-4.39594 3.21083,-4.88494 4.4,-7 4.98523,2.73998 4.24039,1.49679 3.9,-1.5 3.24527,-1.70145 3.01604,-6.28205 5.9,-0.2 5.24602,4.3595 0.70813,3.12911 -1.8,5.6 1.72037,1.01998 1.00081,5.38337 2.7,8 -1.83904,4.68727 6.44296,3.64021 8.9,1.7 3.6809,-1.51689 -0.76147,-6.36557 4.8,-6.9 3.24544,-2.08315 4.16966,-1.74026 8,-2.5 2.49313,-1.38708 3.0228,9.84552 6.4,3.9 1.47944,-2.2033 3.9755,-4.34917 0.3,-7.1 -3.02699,-3.81227 4.27875,-2.77059 4.5,-6.1 2.1771,0.0825 5.26499,-4.23938 9,-4.2 5.24825,1.1493 -0.18262,6.28619 4.9,7.7 0.94077,4.73051 -6.70422,7.00661 -3,11.5 -1.31546,3.30709 0.42892,6.9675 -2.8,10.3 -2.06033,5.86341 7.83832,3.99705 9.3,9.3 2.55007,2.941 -3.06975,4.64614 -5.7,3.3 -3.63124,-10e-4 -5.04154,-8.33782 -6.8,-1.8 3.82723,1.83252 3.15772,7.3218 7.5,8.9 3.68234,-0.32921 5.62414,2.42033 5.9,5.4 1.0318,3.91941 3.64569,2.47993 0.9,6.8 0.44974,4.85195 5.82877,7.41782 3.6,12.5 0.89452,3.52521 -2.98694,7.4867 2.3,8.6 0.41055,2.91636 4.81087,3.08712 6.5,4.6 5.46825,0.94005 3.14092,5.09354 2.9,9.2 2.33967,-2.05653 5.37217,-9.51823 7.5,-2.7 -1.13241,3.103 5.12019,-0.14101 5.2,5.4 3.64061,3.16937 5.3049,-3.706 8.1,-4.4 3.75268,1.84099 2.795,4.94774 5.8,4.8 3.6626,1.13143 2.73917,-5.24137 5.6,-6 2.78079,-4.63301 -0.61237,-10.21334 5.1,-13.2 0.51635,-3.02843 10.17037,-0.34884 8.3,0.2 3.72391,3.13522 8.8396,-0.20974 9.9,-4.4 5.0974,-0.99516 12.60182,-2.78756 15.8,0.8 3.60171,1.11827 2.79288,5.58935 7.8,4.8 4.35463,1.60771 11.76226,2.35743 11.4,8.5 6.25747,-1.78038 14.52448,-3.27727 21.9,-3.7 5.17903,-1.19601 14.65726,-4.64122 11.2,4.6 -6.49931,2.125 -1.75015,9.06442 -1.7,14.3 2.71503,6.59769 -5.72879,9.9417 -5.8,11.1 -6.12335,1.05617 -8.73371,5.42776 -15.3,5.7 -7.45819,2.3656 -9.23001,10.48372 -7.2,17.1 -2.21405,1.95291 -6.88049,-0.17373 -9.7,-0.3 z"
     id="pgon7"
     inkscape:connector-curvature="0" />
  <path
     style="fill:#5a8006;stroke:#000000;stroke-width:0.50000000000000000;stroke-linecap:square;stroke-linejoin:bevel;stroke-miterlimit:3;stroke-opacity:1;fill-opacity:1"
     d="m 370.4,649.4 c -4.55494,-0.5401 -8.33691,-6.84419 -13.5,-8.1 -1.64459,-4.5818 -12.41088,1.63193 -5.7,-3.3 1.77432,-4.29211 8.44666,-3.88986 12.4,-6.3 3.05892,-5.20522 8.36435,-2.76958 11.5,-0.1 5.67293,0.38082 5.23238,-2.02316 7.6,3 7.04605,4.98807 -7.69797,4.52547 -5.1,11.6 -1.6173,1.83179 -4.82612,2.71424 -7.2,3.2 z"
     id="pgon8"
     inkscape:connector-curvature="0" />
  <path
     style="fill:#5a8006;stroke:#000000;stroke-width:0.50000000000000000;stroke-linecap:square;stroke-linejoin:bevel;stroke-miterlimit:3;stroke-opacity:1;fill-opacity:1"
     d=""
     id="pgon9"
     inkscape:connector-curvature="0" />
  <path
     style="fill:#5a8006;stroke:#000000;stroke-width:0.50000000000000000;stroke-linecap:square;stroke-linejoin:bevel;stroke-miterlimit:3;stroke-opacity:1;fill-opacity:1"
     d=""
     id="pgon10"
     inkscape:connector-curvature="0" />
  <path
     style="fill:#5a8006;stroke:#000000;stroke-width:0.50000000000000000;stroke-linecap:square;stroke-linejoin:bevel;stroke-miterlimit:3;stroke-opacity:1;fill-opacity:1"
     d=""
     id="pgon11"
     inkscape:connector-curvature="0" />
  <path
     style="fill:#5a8006;stroke:#000000;stroke-width:0.50000000000000000;stroke-linecap:square;stroke-linejoin:bevel;stroke-miterlimit:3;stroke-opacity:1;fill-opacity:1"
     d=""
     id="pgon12"
     inkscape:connector-curvature="0" />
  <path
     style="fill:#5a8006;stroke:#000000;stroke-width:0.50000000000000000;stroke-linecap:square;stroke-linejoin:bevel;stroke-miterlimit:3;stroke-opacity:1;fill-opacity:1"
     d=""
     id="pgon13"
     inkscape:connector-curvature="0" />
  <path
     style="fill:#5a8006;stroke:#000000;stroke-width:0.50000000000000000;stroke-linecap:square;stroke-linejoin:bevel;stroke-miterlimit:3;stroke-opacity:1;fill-opacity:1"
     d=""
     id="pgon14"
     inkscape:connector-curvature="0" />
  <path
     style="fill:#5a8006;stroke:#000000;stroke-width:0.50000000000000000;stroke-linecap:square;stroke-linejoin:bevel;stroke-miterlimit:3;stroke-opacity:1;fill-opacity:1"
     d="m 283.3,120.6 c 3.03429,-2.28608 6.73032,-7.6923 11.2,-4.2 4.71337,-2.45334 1.34431,-6.91238 6.8,-8.6 3.34617,0.2476 9.04642,-4.61772 4.6,-6 -1.17011,-4.277378 -1.91558,-8.764904 -5.4,-12.1 0.5221,-3.160733 -5.49385,-6.985822 0.9,-6.1 4.18013,1.272056 2.33561,-4.930806 6.9,-7.1 -0.32909,-3.949549 6.08742,-3.984705 5.1,-9.3 5.26976,-5.781323 5.81644,3.764254 8.5,6.6 3.45185,4.366943 9.77435,3.270399 11.1,6.3 -4.59673,0.280927 -0.81621,0.594592 1.1,4.9 5.21738,2.653755 9.18529,6.207196 8.8,11.4 1.12146,2.150717 3.00759,10.04479 3.1,13.6 -5.92107,3.29086 3.85128,8.98943 1.4,11.7 -3.39623,5.66639 6.28911,10.53376 2.2,15.3 1.3038,6.18022 4.54387,10.438 6.7,16.1 -0.66192,1.00353 0.90438,2.41688 3.8,5.7 -0.11768,5.20868 -0.0705,11.49622 2.9,16.6 -0.81804,6.2725 6.66504,11.36043 8.8,14 -2.93848,5.0358 8.36619,8.15703 8.6,8.2 4.2668,4.26257 10.62684,3.89633 16.3,6.3 -0.0654,0.7427 -5.29168,4.55695 -2.6,8 -3.83489,-0.52744 -7.39352,0.0754 -11.5,-1.2 -4.3381,0.43717 -8.7311,0.10282 -13.8,-0.8 -2.13107,2.62294 -5.71305,5.74649 -9.1,4.2 -0.55521,-5.08566 -3.04948,2.3056 -4.9,-2.4 -2.84946,-3.66703 1.07425,8.886 -1.6,3 -2.58783,-3.08855 -2.44305,-0.0494 -5.1,-0.7 -1.33018,-3.42081 -7.02365,-5.5663 -5.3,-5.1 -2.43572,-2.22827 -5.54172,-1.85691 -8.6,-0.9 -1.0843,2.58338 -1.88894,6.07692 -5.6,3 -1.24675,5.29807 -7.84056,6.87304 -11.9,3.3 -3.12632,-0.93146 -10.7924,5.1391 -8.3,-3.3 -0.58535,-5.83394 -10.34266,-7.84529 -10.1,-14.8 4.56872,-3.74326 -5.8203,-5.72389 -0.8,-11 3.11229,-5.58859 -0.74702,-8.43053 -4.3,-12.4 -2.26688,-1.85568 -8.90468,9.14287 -11.4,1 -0.81171,-3.99556 -1.85923,-6.37712 1.2,-9.6 1.35924,-3.39348 -4.94905,-5.07381 -0.8,-8.4 -1.4644,-4.80848 8.10185,-3.02977 4.8,-7.8 2.1765,-4.49282 -4.69229,-0.21901 -5.4,-3.9 -1.37296,-3.77768 -7.39,-4.2068 -6.3,-9.1 -1.94102,-4.26623 6.60215,-5.41176 2.6,-8.5 1.39266,-2.00373 3.63374,-3.79073 5.4,-5.9 z"
     id="pgon15"
     inkscape:connector-curvature="0" />
  <path
     style="fill:#5a8006;stroke:#000000;stroke-width:0.50000000000000000;stroke-linecap:square;stroke-linejoin:bevel;stroke-miterlimit:3;stroke-opacity:1;fill-opacity:1"
     d="m 340.8,86 c 1.68018,-0.733994 -0.78423,1.661175 0,0 z"
     id="pgon16"
     inkscape:connector-curvature="0" />
  <path
     style="fill:#5a8006;stroke:#000000;stroke-width:0.50000000000000000;stroke-linecap:square;stroke-linejoin:bevel;stroke-miterlimit:3;stroke-opacity:1;fill-opacity:1"
     d="m 348.2,117.7 c 0.1,0.16667 0.1,0.16667 0,0 z"
     id="pgon17"
     inkscape:connector-curvature="0" />
  <path
     style="fill:#5a8006;stroke:#000000;stroke-width:0.50000000000000000;stroke-linecap:square;stroke-linejoin:bevel;stroke-miterlimit:3;stroke-opacity:1;fill-opacity:1"
     d="m 343.4,83.2 c 1.2646,-0.155679 -0.15568,1.264596 0,0 z"
     id="pgon18"
     inkscape:connector-curvature="0" />
  <path
     style="fill:#5a8006;stroke:#000000;stroke-width:0.50000000000000000;stroke-linecap:square;stroke-linejoin:bevel;stroke-miterlimit:3;stroke-opacity:1;fill-opacity:1"
     d=""
     id="pgon19"
     inkscape:connector-curvature="0" />
  <path
     style="fill:#5a8006;stroke:#000000;stroke-width:0.50000000000000000;stroke-linecap:square;stroke-linejoin:bevel;stroke-miterlimit:3;stroke-opacity:1;fill-opacity:1"
     d=""
     id="pgon20"
     inkscape:connector-curvature="0" />
  <path
     style="fill:#5a8006;stroke:#000000;stroke-width:0.50000000000000000;stroke-linecap:square;stroke-linejoin:bevel;stroke-miterlimit:3;stroke-opacity:1;fill-opacity:1"
     d=""
     id="pgon21"
     inkscape:connector-curvature="0" />
  <path
     style="fill:#5a8006;stroke:#000000;stroke-width:0.50000000000000000;stroke-linecap:square;stroke-linejoin:bevel;stroke-miterlimit:3;stroke-opacity:1;fill-opacity:1"
     d=""
     id="pgon22"
     inkscape:connector-curvature="0" />
  <path
     style="fill:#5a8006;stroke:#000000;stroke-width:0.50000000000000000;stroke-linecap:square;stroke-linejoin:bevel;stroke-miterlimit:3;stroke-opacity:1;fill-opacity:1"
     d=""
     id="pgon23"
     inkscape:connector-curvature="0" />
  <path
     style="fill:#5a8006;stroke:#000000;stroke-width:0.50000000000000000;stroke-linecap:square;stroke-linejoin:bevel;stroke-miterlimit:3;stroke-opacity:1;fill-opacity:1"
     d="m 111.5,521.1 c 0.0786,-0.31832 5.35965,-1.12848 7.6,-2.7 -0.83204,-0.62495 -0.82047,-9.90016 -1.3,-4.2 2.78103,5.38123 -3.56275,6.23384 -7.9,5.4 -3.74576,-0.48153 -4.65265,-1.07708 -7.6,-1.6 -4.506248,-2.10196 -1.65617,6.00787 -4.8,2.1 0.890237,-3.00993 -7.618231,-5.08285 -1.7,-4.6 0.893204,-3.94065 6.02127,-2.85373 7.9,-5.2 0.78665,-5.06764 -1.54273,-10.46458 -6.7,-9.6 -2.80114,-2.43512 -9.142725,3.21941 -7,-2.5 -0.261778,-3.00447 3.781487,-2.91368 6.8,-4.7 1.6323,-3.41297 8.49628,-1.25945 9.6,-5.7 -0.91982,-2.33554 0.56174,-6.56574 4.5,-3.9 3.94775,-0.54188 1.05086,5.03989 6.2,1.5 -0.002,-4.54443 5.99657,1.84648 5.7,-3.1 3.72265,-1.43624 6.93644,-4.94151 8.6,-8 3.14101,2.53012 3.24696,-3.67309 7.8,-2.3 4.05455,0.70873 8.4717,0.34652 10.8,-2.8 3.88677,-2.26641 5.60362,-6.2733 10,-5.3 7.43288,-4.40183 12.855,-10.32363 15.3,-18.7 1.23287,-5.34658 3.97459,-10.55765 3.4,-16.2 -0.99039,-1.83435 -6.85569,-8.97021 -3.1,-13.2 7.07248,-5.22613 0.93793,-11.71887 -2.6,-17.8 5.68517,-4.50212 -2.11898,-14.91326 -8.2,-11.3 -2.74239,1.47777 -6.70393,0.61802 -8.3,2.9 -5.31147,0.23231 -7.13308,5.66017 -6.2,9.6 -4.25479,3.15061 -2.68105,-2.38668 -7.3,-3.6 -2.52181,3.13157 -6.23153,1.57202 -8.7,3 -4.5406,2.63182 -0.56888,-4.03432 0.3,-6.2 3.1851,-2.83597 8.04504,-8.70725 11,-10.2 5.05746,2.56801 7.40574,-6.24025 11.9,-7 5.49085,-2.64038 2.75452,-8.79202 4.4,-12.5 6.95255,-2.2081 8.19522,-10.46616 15.1,-12.6 3.3176,-0.65907 2.06116,-4.41244 5,-4 4.62514,3.7071 9.9841,-0.92369 13.3,-2.3 4.6369,3.86666 -5.54352,-2.20731 -0.4,-1 -3.69601,-4.59534 1.15292,-3.22202 3.9,-1.6 4.01632,0.46339 6.36207,5.27002 11.5,3.8 5.8068,-0.53644 8.98298,-5.67938 14.3,-5.8 3.22777,-2.7735 10.31495,-0.0983 7.1,0.4 3.55125,3.54665 6.17743,0.44568 4.4,0.8 4.72283,0.62656 8.06595,10.36732 14.5,10.7 4.69031,2.58284 9.68735,9.40826 1.5,10.2 2.15964,2.48006 5.7417,5.41683 6.9,5.1 -0.54379,4.00867 2.96351,5.35687 2.1,10.1 1.59869,4.30207 5.89023,1.94562 8.6,4.5 1.77314,4.53467 -1.90474,7.57896 -5,8.8 -1.54069,-4.76659 -5.31256,-6.15766 -9.1,-4.8 -3.55104,-6.71647 -5.5376,4.03549 -10.7,1.3 -0.73214,4.10601 -5.33126,4.00367 -2.4,7.2 -3.86538,2.70361 -3.22403,11.25484 2.8,7.9 -0.61945,4.06837 5.78565,2.27425 5.2,5.1 2.66055,2.35002 4.53181,4.38648 0.1,3.2 -3.17909,0.15071 -0.90454,7.81663 -5.2,8.9 2.25173,1.52496 -6.04715,7.24742 -4,6.6 3.21809,3.08302 -1.989,7.65085 3.4,5.3 -0.48426,-3.86539 9.2429,-6.46284 5.7,0.9 -2.17405,0.41653 -2.03346,4.44012 -6.7,3 -3.96289,1.06405 -13.201,5.13932 -6.7,9.3 4.5696,2.87365 8.6732,10.15137 15.3,7.1 2.47542,2.67709 -4.07095,3.96029 -2.7,7.9 3.95073,1.62406 3.98248,2.13914 -1,2.6 -2.80635,2.20613 -4.69204,5.25533 -5.7,9.1 -1.88336,2.68855 5.38114,2.86399 -2.1,4.3 1.91506,2.3878 0.94514,3.97258 1.1,8.1 3.13237,3.39858 0.83522,9.08854 5.9,12.1 1.89988,3.12275 2.95218,5.63478 5.9,5.6 3.29591,-3.31483 7.8814,0.36684 7,-0.7 3.34351,2.54226 4.45357,5.36583 7,8.9 2.64898,-1.67246 7.90716,0.9146 4.3,4.4 0.54918,3.51296 -0.12348,6.27626 -0.2,9.5 1.33422,1.79632 1.87186,5.93008 0.7,5.9 -0.70961,2.65079 1.85044,7.58014 -3,9.7 -1.77316,4.13658 -4.84272,5.21598 -5.5,4.5 -0.20511,1.25871 -0.79169,-1.88981 -1.8,-0.2 -3.26276,1.73873 -5.51754,3.37142 -4.1,1.5 6.02231,-4.7578 -1.13716,-2.95846 -0.5,-1.5 3.67951,-2.17862 -1.39678,1.81231 -3.7,0.1 -8.06902,1.13776 -16.22469,7.07233 -17.6,14.5 -4.89468,0.33378 -10.2131,2.10907 -16.1,2 -4.76889,-2.49925 -11.35209,-0.59525 -13.5,-7.1 -2.10595,-4.38843 -5.84899,-2.80861 -8.6,-5.4 -3.452,-5.93351 -4.68609,-13.94583 -11.8,-14.1 -3.20422,-2.25454 -9.04758,7.52562 -5.6,5.1 -4.18181,0.31916 -7.24619,-0.65341 -11.6,-0.1 0.64553,3.10006 -4.46045,2.47169 -6.9,1.6 -4.29603,-3.34287 -5.67179,-0.0134 -3.3,-4.8 -2.2718,-3.35656 4.81387,-5.92937 4.3,-8.4 3.09614,-3.4308 -0.33566,0.22794 -4.3,-0.3 -3.76549,0.69454 -5.49402,-8.09427 -6,-3.9 0.49292,-4.1095 -1.49469,-2.31414 -1.2,-1.6 -2.90645,2.12377 -0.383,-2.2488 -0.5,-2.1 1.49923,-2.59698 -5.34698,2.72887 -8.3,-0.7 -3.70109,-0.64065 -12.62145,-0.4622 -10.5,4.3 -0.67795,4.35573 -3.53848,3.83919 -6.8,6 -3.12112,-2.20743 -8.40246,-0.55061 -8.8,2.5 -2.79119,3.08291 -7.39114,-0.91967 -11,-1.8 3.89486,-4.16164 -8.68887,-6.61857 -1.1,-7.4 1.85111,2.74704 2.79033,-2.19038 6.7,0.2 z"
     id="pgon24"
     inkscape:connector-curvature="0" />
  <path
     style="fill:#5a8006;stroke:#000000;stroke-width:0.50000000000000000;stroke-linecap:square;stroke-linejoin:bevel;stroke-miterlimit:3;stroke-opacity:1;fill-opacity:1"
     d="m 156.8,360.5 c -1.07188,-3.80934 -6.86676,-3.61918 -6,-8.4 -1.28704,-3.9341 -5.68955,-2.0447 -6.9,-5 -0.27685,-4.77658 -6.54953,-1.56418 -4.9,-6.3 4.61903,-4.64906 5.4884,2.59493 3.9,0.1 4.85317,2.8735 3.06852,-1.07337 4.3,-4.3 1.13832,-3.66934 -1.39573,-6.47686 3.4,-6.8 3.48929,0.75257 6.91269,-3.00684 11.4,0.1 6.05032,-1.67495 4.53033,5.37094 7.5,7.8 0.38708,4.90661 5.56443,5.19786 9,3.7 6.38491,-0.21189 1.17179,4.85723 -0.8,7.3 -3.2508,2.89452 -7.14415,3.68981 -8.4,7.7 -4.14746,2.61573 -4.13125,3.57586 -6.6,5 -2.67029,2.47782 -4.28544,-1.93928 -5.9,-0.9 z"
     id="pgon25"
     inkscape:connector-curvature="0" />
  <path
     style="fill:#5a8006;stroke:#000000;stroke-width:0.50000000000000000;stroke-linecap:square;stroke-linejoin:bevel;stroke-miterlimit:3;stroke-opacity:1;fill-opacity:1"
     d="m 89.8,515.5 c -1.821842,-4.06894 4.682448,1.42321 0,0 z"
     id="pgon26"
     inkscape:connector-curvature="0" />
  <path
     style="fill:#5a8006;stroke:#000000;stroke-width:0.50000000000000000;stroke-linecap:square;stroke-linejoin:bevel;stroke-miterlimit:3;stroke-opacity:1;fill-opacity:1"
     d="m 87.1,500.9 c 3.560327,-3.54132 -0.01905,-0.26245 0,0 z"
     id="pgon27"
     inkscape:connector-curvature="0" />
  <path
     style="fill:#5a8006;stroke:#000000;stroke-width:0.50000000000000000;stroke-linecap:square;stroke-linejoin:bevel;stroke-miterlimit:3;stroke-opacity:1;fill-opacity:1"
     d="m 133,527.9 c -2.42878,2.06566 -4.12407,-2.80106 0,0 z"
     id="pgon28"
     inkscape:connector-curvature="0" />
  <path
     style="fill:#5a8006;stroke:#000000;stroke-width:0.50000000000000000;stroke-linecap:square;stroke-linejoin:bevel;stroke-miterlimit:3;stroke-opacity:1;fill-opacity:1"
     d="m 129.1,402.9 c 1.83025,-4.852 1.07538,2.08 0,0 z"
     id="pgon29"
     inkscape:connector-curvature="0" />
  <path
     style="fill:#5a8006;stroke:#000000;stroke-width:0.50000000000000000;stroke-linecap:square;stroke-linejoin:bevel;stroke-miterlimit:3;stroke-opacity:1;fill-opacity:1"
     d="m 91.9,519.5 c -3.027814,1.72749 0.801205,-2.13225 0,0 z"
     id="pgon30"
     inkscape:connector-curvature="0" />
  <path
     style="fill:#5a8006;stroke:#000000;stroke-width:0.50000000000000000;stroke-linecap:square;stroke-linejoin:bevel;stroke-miterlimit:3;stroke-opacity:1;fill-opacity:1"
     d="m 240.3,559.9 c -0.22127,-1.53948 1.26852,1.02585 0,0 z"
     id="pgon31"
     inkscape:connector-curvature="0" />
  <path
     style="fill:#5a8006;stroke:#000000;stroke-width:0.50000000000000000;stroke-linecap:square;stroke-linejoin:bevel;stroke-miterlimit:3;stroke-opacity:1;fill-opacity:1"
     d="m 182.9,341.7 c 1.42026,-1.88503 -0.5983,1.7603 0,0 z"
     id="pgon32"
     inkscape:connector-curvature="0" />
  <path
     style="fill:#5a8006;stroke:#000000;stroke-width:0.50000000000000000;stroke-linecap:square;stroke-linejoin:bevel;stroke-miterlimit:3;stroke-opacity:1;fill-opacity:1"
     d="m 134.1,472.4 c -0.16667,0.1 -0.16667,0.1 0,0 z"
     id="pgon33"
     inkscape:connector-curvature="0" />
  <path
     style="fill:#5a8006;stroke:#000000;stroke-width:0.50000000000000000;stroke-linecap:square;stroke-linejoin:bevel;stroke-miterlimit:3;stroke-opacity:1;fill-opacity:1"
     d="m 144.9,328.5 c 0.53432,0.76073 -1.17451,0.60119 0,0 z"
     id="pgon34"
     inkscape:connector-curvature="0" />
  <path
     style="fill:#5a8006;stroke:#000000;stroke-width:0.50000000000000000;stroke-linecap:square;stroke-linejoin:bevel;stroke-miterlimit:3;stroke-opacity:1;fill-opacity:1"
     d=""
     id="pgon35"
     inkscape:connector-curvature="0" />
  <path
     style="fill:#5a8006;stroke:#000000;stroke-width:0.50000000000000000;stroke-linecap:square;stroke-linejoin:bevel;stroke-miterlimit:3;stroke-opacity:1;fill-opacity:1"
     d=""
     id="pgon36"
     inkscape:connector-curvature="0" />
  <path
     style="fill:#5a8006;stroke:#000000;stroke-width:0.50000000000000000;stroke-linecap:square;stroke-linejoin:bevel;stroke-miterlimit:3;stroke-opacity:1;fill-opacity:1"
     d=""
     id="pgon37"
     inkscape:connector-curvature="0" />
  <path
     style="fill:#5a8006;stroke:#000000;stroke-width:0.50000000000000000;stroke-linecap:square;stroke-linejoin:bevel;stroke-miterlimit:3;stroke-opacity:1;fill-opacity:1"
     d=""
     id="pgon38"
     inkscape:connector-curvature="0" />
  <path
     style="fill:#5a8006;stroke:#000000;stroke-width:0.50000000000000000;stroke-linecap:square;stroke-linejoin:bevel;stroke-miterlimit:3;stroke-opacity:1;fill-opacity:1"
     d="m 151.5,398.4 c 0.0333,0.16667 0.0333,0.16667 0,0 z"
     id="pgon39"
     inkscape:connector-curvature="0" />
  <path
     style="fill:#5a8006;stroke:#000000;stroke-width:0.50000000000000000;stroke-linecap:square;stroke-linejoin:bevel;stroke-miterlimit:3;stroke-opacity:1;fill-opacity:1"
     d="m 168.4,333.6 c -0.15548,-0.0976 -0.11124,-1.50058 0,0 z"
     id="pgon40"
     inkscape:connector-curvature="0" />
  <path
     style="fill:#5a8006;stroke:#000000;stroke-width:0.50000000000000000;stroke-linecap:square;stroke-linejoin:bevel;stroke-miterlimit:3;stroke-opacity:1;fill-opacity:1"
     d=""
     id="pgon41"
     inkscape:connector-curvature="0" />
  <path
     style="fill:#5a8006;stroke:#000000;stroke-width:0.50000000000000000;stroke-linecap:square;stroke-linejoin:bevel;stroke-miterlimit:3;stroke-opacity:1;fill-opacity:1"
     d="m 84.6,498.8 c -0.166667,0.0333 -0.166667,0.0333 0,0 z"
     id="pgon42"
     inkscape:connector-curvature="0" />
  <path
     style="fill:#5a8006;stroke:#000000;stroke-width:0.50000000000000000;stroke-linecap:square;stroke-linejoin:bevel;stroke-miterlimit:3;stroke-opacity:1;fill-opacity:1"
     d=""
     id="pgon43"
     inkscape:connector-curvature="0" />
  <path
     style="fill:#5a8006;stroke:#000000;stroke-width:0.50000000000000000;stroke-linecap:square;stroke-linejoin:bevel;stroke-miterlimit:3;stroke-opacity:1;fill-opacity:1"
     d=""
     id="pgon44"
     inkscape:connector-curvature="0" />
  <path
     style="fill:#5a8006;stroke:#000000;stroke-width:0.50000000000000000;stroke-linecap:square;stroke-linejoin:bevel;stroke-miterlimit:3;stroke-opacity:1;fill-opacity:1"
     d=""
     id="pgon45"
     inkscape:connector-curvature="0" />
  <path
     style="fill:#5a8006;stroke:#000000;stroke-width:0.50000000000000000;stroke-linecap:square;stroke-linejoin:bevel;stroke-miterlimit:3;stroke-opacity:1;fill-opacity:1"
     d=""
     id="pgon46"
     inkscape:connector-curvature="0" />
  <path
     style="fill:#5a8006;stroke:#000000;stroke-width:0.50000000000000000;stroke-linecap:square;stroke-linejoin:bevel;stroke-miterlimit:3;stroke-opacity:1;fill-opacity:1"
     d=""
     id="pgon47"
     inkscape:connector-curvature="0" />
  <path
     style="fill:#5a8006;stroke:#000000;stroke-width:0.50000000000000000;stroke-linecap:square;stroke-linejoin:bevel;stroke-miterlimit:3;stroke-opacity:1;fill-opacity:1"
     d=""
     id="pgon48"
     inkscape:connector-curvature="0" />
  <path
     style="fill:#5a8006;stroke:#000000;stroke-width:0.50000000000000000;stroke-linecap:square;stroke-linejoin:bevel;stroke-miterlimit:3;stroke-opacity:1;fill-opacity:1"
     d=""
     id="pgon49"
     inkscape:connector-curvature="0" />
  <path
     style="fill:#5a8006;stroke:#000000;stroke-width:0.50000000000000000;stroke-linecap:square;stroke-linejoin:bevel;stroke-miterlimit:3;stroke-opacity:1;fill-opacity:1"
     d=""
     id="pgon50"
     inkscape:connector-curvature="0" />
  <path
     style="fill:#5a8006;stroke:#000000;stroke-width:0.50000000000000000;stroke-linecap:square;stroke-linejoin:bevel;stroke-miterlimit:3;stroke-opacity:1;fill-opacity:1"
     d=""
     id="pgon51"
     inkscape:connector-curvature="0" />
  <path
     style="fill:#5a8006;stroke:#000000;stroke-width:0.50000000000000000;stroke-linecap:square;stroke-linejoin:bevel;stroke-miterlimit:3;stroke-opacity:1;fill-opacity:1"
     d=""
     id="pgon52"
     inkscape:connector-curvature="0" />
  <path
     style="fill:#5a8006;stroke:#000000;stroke-width:0.50000000000000000;stroke-linecap:square;stroke-linejoin:bevel;stroke-miterlimit:3;stroke-opacity:1;fill-opacity:1"
     d=""
     id="pgon53"
     inkscape:connector-curvature="0" />
  <path
     style="fill:#5a8006;stroke:#000000;stroke-width:0.50000000000000000;stroke-linecap:square;stroke-linejoin:bevel;stroke-miterlimit:3;stroke-opacity:1;fill-opacity:1"
     d=""
     id="pgon54"
     inkscape:connector-curvature="0" />
  <path
     style="fill:#5a8006;stroke:#000000;stroke-width:0.50000000000000000;stroke-linecap:square;stroke-linejoin:bevel;stroke-miterlimit:3;stroke-opacity:1;fill-opacity:1"
     d=""
     id="pgon55"
     inkscape:connector-curvature="0" />
  <path
     style="fill:#5a8006;stroke:#000000;stroke-width:0.50000000000000000;stroke-linecap:square;stroke-linejoin:bevel;stroke-miterlimit:3;stroke-opacity:1;fill-opacity:1"
     d=""
     id="pgon56"
     inkscape:connector-curvature="0" />
  <path
     style="fill:#5a8006;stroke:#000000;stroke-width:0.50000000000000000;stroke-linecap:square;stroke-linejoin:bevel;stroke-miterlimit:3;stroke-opacity:1;fill-opacity:1"
     d=""
     id="pgon57"
     inkscape:connector-curvature="0" />
  <path
     style="fill:#5a8006;stroke:#000000;stroke-width:0.50000000000000000;stroke-linecap:square;stroke-linejoin:bevel;stroke-miterlimit:3;stroke-opacity:1;fill-opacity:1"
     d=""
     id="pgon58"
     inkscape:connector-curvature="0" />
  <path
     style="fill:#5a8006;stroke:#000000;stroke-width:0.50000000000000000;stroke-linecap:square;stroke-linejoin:bevel;stroke-miterlimit:3;stroke-opacity:1;fill-opacity:1"
     d=""
     id="pgon59"
     inkscape:connector-curvature="0" />
  <path
     style="fill:#5a8006;stroke:#000000;stroke-width:0.50000000000000000;stroke-linecap:square;stroke-linejoin:bevel;stroke-miterlimit:3;stroke-opacity:1;fill-opacity:1"
     d=""
     id="pgon60"
     inkscape:connector-curvature="0" />
  <path
     style="fill:#5a8006;stroke:#000000;stroke-width:0.50000000000000000;stroke-linecap:square;stroke-linejoin:bevel;stroke-miterlimit:3;stroke-opacity:1;fill-opacity:1"
     d=""
     id="pgon61"
     inkscape:connector-curvature="0" />
  <path
     style="fill:#5a8006;stroke:#000000;stroke-width:0.50000000000000000;stroke-linecap:square;stroke-linejoin:bevel;stroke-miterlimit:3;stroke-opacity:1;fill-opacity:1"
     d=""
     id="pgon62"
     inkscape:connector-curvature="0" />
  <path
     style="fill:#5a8006;stroke:#000000;stroke-width:0.50000000000000000;stroke-linecap:square;stroke-linejoin:bevel;stroke-miterlimit:3;stroke-opacity:1;fill-opacity:1"
     d=""
     id="pgon63"
     inkscape:connector-curvature="0" />
  <path
     style="fill:#5a8006;stroke:#000000;stroke-width:0.50000000000000000;stroke-linecap:square;stroke-linejoin:bevel;stroke-miterlimit:3;stroke-opacity:1;fill-opacity:1"
     d=""
     id="pgon64"
     inkscape:connector-curvature="0" />
  <path
     style="fill:#5a8006;stroke:#000000;stroke-width:0.50000000000000000;stroke-linecap:square;stroke-linejoin:bevel;stroke-miterlimit:3;stroke-opacity:1;fill-opacity:1"
     d="m 241.1,561.8 c 1.60643,-6.08726 11.55427,-8.54354 16.2,-13.3 3.508,-4.28193 9.40927,-4.51704 13.1,-5.8 1.90967,-2.80772 -3.24277,-4.65632 2.2,-6.8 1.93586,-4.35722 -3.04056,-7.79916 0.6,-9.1 -2.01942,-2.60791 -1.27256,-5.98312 -0.7,-9.2 -2.14115,-5.04578 2.81167,-10.66778 6.3,-10.8 2.40651,-0.67386 5.05522,-2.74234 7.5,-3.7 4.02472,-0.61217 -2.30363,-8.76554 -1,-7.6 -2.17664,-2.76766 3.61367,-8.33295 1.6,-7.4 1.61488,2.38426 3.6735,4.38978 6.5,0.7 4.39606,-0.0187 2.17295,7.06803 7.6,5.5 0.51783,-3.60105 8.67345,-1.79866 5.3,-5 -2.39603,-4.65969 6.97655,-4.64376 3,-1.6 -2.39198,5.30777 4.97772,-0.1517 7,2.1 2.77761,-3.49991 6.87842,-3.03277 9.6,-3.2 2.39218,5.28589 7.5379,1.85272 3,-1.5 -2.77167,-4.15521 4.0166,-1.70763 4.5,-6.2 4.14211,-1.28795 3.6438,4.50599 6,4.2 -1.01874,4.62567 5.52075,6.33346 5.3,4.6 -3.83152,3.08955 -3.42416,7.37514 0.6,9.5 -1.79679,3.43442 -1.3299,4.93738 -4.2,8.1 -0.11959,3.12396 0.15409,8.24863 -2.1,10.2 2.07808,3.84094 0.7169,7.77098 4.3,10.6 -5.07795,-2.07499 -2.77638,3.99407 -1,5.9 -1.51511,1.66327 -3.27972,7.63067 1.2,6.5 2.69279,5.34282 4.29567,6.31963 6.3,11.6 4.36037,3.4536 1.53094,6.21221 0.2,6.5 0.31918,3.26574 7.38488,6.25992 3.5,8.6 -3.59584,-1.05713 -0.15507,5.78847 -2.1,7 1.99365,4.78707 -6.10915,-0.75199 -6.5,5.1 -4.67678,0.46669 -4.38226,2.84117 -2.2,6.8 -0.87647,4.38205 3.38305,4.5697 2.1,9.1 -1.51359,3.86829 2.80962,6.35913 1.5,8.5 -1.71232,1.25178 1.91311,5.64235 -3.1,6.8 -3.46445,-2.64271 -8.49224,-4.61807 -11.9,-5.5 -3.39803,-1.17419 -2.58546,0.0586 -7.3,-0.2 -4.56404,1.5467 2.39028,6.05404 4.3,8.8 4.25396,-3.94809 4.17642,2.39177 1.6,3.7 -2.26767,4.9851 5.65052,1.48841 3,6.1 -0.88933,3.03449 0.3735,8.94077 4,6.1 -2.22597,4.98896 7.70062,1.17824 2.7,4.4 -3.2505,4.73285 -9.841,-0.449 -14.5,3.7 -5.6475,4.3494 0.56215,8.18529 -1.8,8.3 -1.20635,2.89007 -1.51653,5.26669 -6.3,4.5 -2.4322,2.30785 -4.6566,-1.68195 -7.9,-2.4 -5.70699,-1.27764 -12.2817,-1.19183 -18.6,-2.9 -5.34989,0.70298 -1.78852,4.11941 -5,5.9 3.19861,1.48998 5.24723,4.14422 1.3,7.4 -0.64274,-1.48733 0.77902,-7.37782 -3.8,-9 -8.36659,-7.27368 -18.57881,-15.52232 -29.8,-15 -1.9972,4.0008 -8.63102,1.97657 -11.8,3.9 -4.58371,1.53315 -13.37642,-0.54399 -15,6.7 -3.82826,1.09684 -5.81868,3.89372 -9.6,1.1 1.07834,-0.26609 -0.5744,-5.63769 -1,-2.7 2.48229,4.14991 0.31784,4.77603 -1.5,9 -6.79357,4.86653 5.08985,13.52415 -1,19.3 -3.14271,1.58044 -4.51296,9.51892 -7,2.6 -2.74762,-5.10194 3.64161,5.8089 -2.3,5 -4.0073,2.35658 -3.62982,9.31574 -3.7,11.2 -3.46655,0.45567 -6.13746,2.5038 -8.3,-1.3 2.88448,-2.64083 0.40644,-4.35976 -0.7,0.9 -2.20261,2.36667 -7.06814,-2.4781 -6,-5 -3.02528,-4.10482 -7.76137,-6.27614 -12.7,-3.7 -1.45924,-2.82769 -4.00452,-1.45862 -5.8,-4.9 1.39697,-4.91551 -5.03533,-1.17423 -4.6,-6.4 -2.54452,-3.90309 1.8758,5.26799 0.6,3.8 2.42988,0.34348 -2.15074,6.49945 -3,4.1 -2.34537,-5.34555 -11.42988,-6.22622 -16,-3.8 -3.05287,3.63308 -9.83675,2.15841 -13.6,1.9 2.95532,-2.1761 -4.40888,3.91602 -4.1,-1.5 -5.66504,-0.50068 -3.66545,4.02825 -5.9,5.6 -0.3062,2.95292 0.20268,6.55365 -2.6,7.3 -4.04754,-4.76461 -6.63144,4.22281 -10.3,1.8 -1.40105,1.71263 -3.26213,9.15661 -4.6,5.5 0.81128,0.12255 -1.84861,-2.66857 -0.9,-6.1 1.81684,-5.12435 1.28477,-3.47732 -0.7,0.1 -0.82015,3.07479 -3.722971,5.61466 -0.8,6 -3.202984,0.44111 -2.119541,6.47559 -6.1,5.6 -4.625515,0.25759 -2.62134,0.29491 2,1 2.090758,0.41259 3.656813,6.0823 0.2,7.7 -0.790958,3.27162 -7.92154,0.23638 -7,6.3 -4.063375,0.67193 -6.086753,-4.56401 -5.2,-8 -1.494323,-5.25273 -7.121647,-8.06651 -11.6,-8.4 -2.559746,-3.50382 -9.33177,-4.12284 -7.9,2.2 -2.028664,3.92198 -7.894682,3.94615 -10.9,4 -3.845703,-3.04405 1.673906,-5.70273 -1.3,-9.8 1.973073,-4.88029 8.885786,-5.26611 12,-8.9 3.597119,-1.94066 5.082758,0.95511 7.8,1.7 3.613065,-2.07941 3.191986,-5.50562 7.9,-4.4 3.373092,-2.57843 6.955334,-4.70064 8.4,-8.6 7.015494,-0.20982 2.82233,-10.00691 8.7,-10.1 3.04264,0.67696 6.47864,-5.81763 4.8,-9.3 2.55338,-3.4935 -0.74314,-6.49375 4.5,-4.9 3.0404,-4.78566 3.67978,2.69513 4.3,-3.7 -0.20939,-1.08698 4.79714,-1.06559 7.8,-1.3 5.508,-2.20205 2.14265,-9.91764 8.3,-10 4.15029,-3.54266 4.70245,-7.76574 10.1,-10.2 1.86961,-7.2435 -0.88207,-14.47617 3,-20.9 -1.67097,-9.31602 8.37349,-4.80908 12.5,-1.9 5.12719,0.29346 8.18619,-6.1436 9.5,-9.1 4.72194,3.9677 -2.2258,-1.69476 0,-4.8 -4.4915,-3.61002 2.13776,-2.29879 1.2,-7 -0.73322,-2.77072 7.64664,-3.0822 10.5,-3.7 4.4829,1.2643 9.74859,-1.85324 14.2,-1.3 5.59007,-1.69467 10.83811,-0.0864 16.8,1.6 3.40386,-1.56436 8.24455,-1.39646 11.7,1 6.59113,6.27567 15.79602,2.51533 23.4,0.2 7.42368,-0.88648 -0.60038,-2.12012 3.2,-2.2 6.24762,-0.9633 1.99642,-1.98173 5,-1.1 -5.02443,-1.41361 -5.63495,-0.84904 -2.2,-5.4 0.57151,-4.18538 3.08101,-7.19872 5.5,-10.9 6.55734,-1.23141 5.59622,-5.5888 -0.39735,-0.30159 -3.52614,0.79011 -11.12499,9.82233 -9.90265,3.90159 z"
     id="pgon65"
     inkscape:connector-curvature="0" />
  <path
     style="fill:#5a8006;stroke:#000000;stroke-width:0.50000000000000000;stroke-linecap:square;stroke-linejoin:bevel;stroke-miterlimit:3;stroke-opacity:1;fill-opacity:1"
     d="m 8.1,714.5 c 2.089507,-5.51633 3.107668,4.05397 -1.3,0.5 0.144731,-0.5853 0.8359332,-0.72286 1.3,-0.5 z"
     id="pgon66"
     inkscape:connector-curvature="0" />
  <path
     style="fill:#5a8006;stroke:#000000;stroke-width:0.50000000000000000;stroke-linecap:square;stroke-linejoin:bevel;stroke-miterlimit:3;stroke-opacity:1;fill-opacity:1"
     d="m 130.7,579.7 c -0.29668,-6.73826 3.21561,1.76581 0.5,1.4 -0.38122,-0.37745 -0.37954,-0.92104 -0.5,-1.4 z"
     id="pgon67"
     inkscape:connector-curvature="0" />
  <path
     style="fill:#5a8006;stroke:#000000;stroke-width:0.50000000000000000;stroke-linecap:square;stroke-linejoin:bevel;stroke-miterlimit:3;stroke-opacity:1;fill-opacity:1"
     d="m 7.3,709.8 c -0.1990248,5.79914 -3.1738943,-2.97515 0,0 z"
     id="pgon68"
     inkscape:connector-curvature="0" />
  <path
     style="fill:#5a8006;stroke:#000000;stroke-width:0.50000000000000000;stroke-linecap:square;stroke-linejoin:bevel;stroke-miterlimit:3;stroke-opacity:1;fill-opacity:1"
     d="m 11.7,709.1 c -2.4184826,3.46171 -3.867915,-4.12062 -0.6,0.1 l 0.6,-0.1 z"
     id="pgon69"
     inkscape:connector-curvature="0" />
  <path
     style="fill:#5a8006;stroke:#000000;stroke-width:0.50000000000000000;stroke-linecap:square;stroke-linejoin:bevel;stroke-miterlimit:3;stroke-opacity:1;fill-opacity:1"
     d="m 4.8,717.6 c -0.040633,-3.27256 4.2452757,0.99025 0,0 z"
     id="pgon70"
     inkscape:connector-curvature="0" />
  <path
     style="fill:#5a8006;stroke:#000000;stroke-width:0.50000000000000000;stroke-linecap:square;stroke-linejoin:bevel;stroke-miterlimit:3;stroke-opacity:1;fill-opacity:1"
     d="m 5.6,709.7 c -0.093606,4.42332 -2.1544387,-1.71435 0,0 z"
     id="pgon71"
     inkscape:connector-curvature="0" />
  <path
     style="fill:#5a8006;stroke:#000000;stroke-width:0.50000000000000000;stroke-linecap:square;stroke-linejoin:bevel;stroke-miterlimit:3;stroke-opacity:1;fill-opacity:1"
     d="m 5.6,712.3 c 0.8725804,3.32209 -2.1193211,-1.55133 0,0 z"
     id="pgon72"
     inkscape:connector-curvature="0" />
  <path
     style="fill:#5a8006;stroke:#000000;stroke-width:0.50000000000000000;stroke-linecap:square;stroke-linejoin:bevel;stroke-miterlimit:3;stroke-opacity:1;fill-opacity:1"
     d="m 8.3,708.5 c 1.230739,1.71242 -1.8590924,-0.22734 0,0 z"
     id="pgon73"
     inkscape:connector-curvature="0" />
  <path
     style="fill:#5a8006;stroke:#000000;stroke-width:0.50000000000000000;stroke-linecap:square;stroke-linejoin:bevel;stroke-miterlimit:3;stroke-opacity:1;fill-opacity:1"
     d="m 7.2,708.6 c -1.7645769,-0.45543 1.7675663,-1.01988 0,0 z"
     id="pgon74"
     inkscape:connector-curvature="0" />
  <path
     style="fill:#5a8006;stroke:#000000;stroke-width:0.50000000000000000;stroke-linecap:square;stroke-linejoin:bevel;stroke-miterlimit:3;stroke-opacity:1;fill-opacity:1"
     d="m 3.9,716.8 c -1.0665727,0.43275 -0.4880902,-1.42395 0,0 z"
     id="pgon75"
     inkscape:connector-curvature="0" />
  <path
     style="fill:#5a8006;stroke:#000000;stroke-width:0.50000000000000000;stroke-linecap:square;stroke-linejoin:bevel;stroke-miterlimit:3;stroke-opacity:1;fill-opacity:1"
     d="m 12.1,711.1 c -1.339107,-1.32343 1.613604,0.39685 0,0 z"
     id="pgon76"
     inkscape:connector-curvature="0" />
  <path
     style="fill:#5a8006;stroke:#000000;stroke-width:0.50000000000000000;stroke-linecap:square;stroke-linejoin:bevel;stroke-miterlimit:3;stroke-opacity:1;fill-opacity:1"
     d="m 143.7,673.9 c 0.16667,-0.0333 0.16667,-0.0333 0,0 z"
     id="pgon77"
     inkscape:connector-curvature="0" />
  <path
     style="fill:#5a8006;stroke:#000000;stroke-width:0.50000000000000000;stroke-linecap:square;stroke-linejoin:bevel;stroke-miterlimit:3;stroke-opacity:1;fill-opacity:1"
     d="m 11.7,711.8 c -0.06667,-0.16667 -0.06667,-0.16667 0,0 z"
     id="pgon78"
     inkscape:connector-curvature="0" />
  <path
     style="fill:#5a8006;stroke:#000000;stroke-width:0.50000000000000000;stroke-linecap:square;stroke-linejoin:bevel;stroke-miterlimit:3;stroke-opacity:1;fill-opacity:1"
     d="m 7,709.1 c -0.1333333,-0.16667 -0.1333333,-0.16667 0,0 z"
     id="pgon79"
     inkscape:connector-curvature="0" />
  <path
     style="fill:#5a8006;stroke:#000000;stroke-width:0.50000000000000000;stroke-linecap:square;stroke-linejoin:bevel;stroke-miterlimit:3;stroke-opacity:1;fill-opacity:1"
     d="m 4,709.9 c 0.066667,0.16667 0.066667,0.16667 0,0 z"
     id="pgon80"
     inkscape:connector-curvature="0" />
  <path
     style="fill:#5a8006;stroke:#000000;stroke-width:0.50000000000000000;stroke-linecap:square;stroke-linejoin:bevel;stroke-miterlimit:3;stroke-opacity:1;fill-opacity:1"
     d="m 5.8,712.2 c 0.033333,-0.16667 0.033333,-0.16667 0,0 z"
     id="pgon81"
     inkscape:connector-curvature="0" />
  <path
     style="fill:#5a8006;stroke:#000000;stroke-width:0.50000000000000000;stroke-linecap:square;stroke-linejoin:bevel;stroke-miterlimit:3;stroke-opacity:1;fill-opacity:1"
     d=""
     id="pgon82"
     inkscape:connector-curvature="0" />
  <path
     style="fill:#5a8006;stroke:#000000;stroke-width:0.50000000000000000;stroke-linecap:square;stroke-linejoin:bevel;stroke-miterlimit:3;stroke-opacity:1;fill-opacity:1"
     d="m 9.2,710.6 c -0.033333,-0.16667 -0.033333,-0.16667 0,0 z"
     id="pgon83"
     inkscape:connector-curvature="0" />
  <path
     style="fill:#5a8006;stroke:#000000;stroke-width:0.50000000000000000;stroke-linecap:square;stroke-linejoin:bevel;stroke-miterlimit:3;stroke-opacity:1;fill-opacity:1"
     d=""
     id="pgon84"
     inkscape:connector-curvature="0" />
  <path
     style="fill:#5a8006;stroke:#000000;stroke-width:0.50000000000000000;stroke-linecap:square;stroke-linejoin:bevel;stroke-miterlimit:3;stroke-opacity:1;fill-opacity:1"
     d="m 4.7,712.6 c -0.050025,0.30723 -1.5428927,0.22651 0,0 z"
     id="pgon85"
     inkscape:connector-curvature="0" />
  <path
     style="fill:#5a8006;stroke:#000000;stroke-width:0.50000000000000000;stroke-linecap:square;stroke-linejoin:bevel;stroke-miterlimit:3;stroke-opacity:1;fill-opacity:1"
     d="m 165.6,674.8 c -2.39643,0 1.85154,0 0,0 z"
     id="pgon86"
     inkscape:connector-curvature="0" />
  <path
     style="fill:#5a8006;stroke:#000000;stroke-width:0.50000000000000000;stroke-linecap:square;stroke-linejoin:bevel;stroke-miterlimit:3;stroke-opacity:1;fill-opacity:1"
     d=""
     id="pgon87"
     inkscape:connector-curvature="0" />
  <path
     style="fill:#5a8006;stroke:#000000;stroke-width:0.50000000000000000;stroke-linecap:square;stroke-linejoin:bevel;stroke-miterlimit:3;stroke-opacity:1;fill-opacity:1"
     d=""
     id="pgon88"
     inkscape:connector-curvature="0" />
  <path
     style="fill:#5a8006;stroke:#000000;stroke-width:0.50000000000000000;stroke-linecap:square;stroke-linejoin:bevel;stroke-miterlimit:3;stroke-opacity:1;fill-opacity:1"
     d=""
     id="pgon89"
     inkscape:connector-curvature="0" />
  <path
     style="fill:#5a8006;stroke:#000000;stroke-width:0.50000000000000000;stroke-linecap:square;stroke-linejoin:bevel;stroke-miterlimit:3;stroke-opacity:1;fill-opacity:1"
     d=""
     id="pgon90"
     inkscape:connector-curvature="0" />
  <path
     style="fill:#5a8006;stroke:#000000;stroke-width:0.50000000000000000;stroke-linecap:square;stroke-linejoin:bevel;stroke-miterlimit:3;stroke-opacity:1;fill-opacity:1"
     d=""
     id="pgon91"
     inkscape:connector-curvature="0" />
  <path
     style="fill:#5a8006;stroke:#000000;stroke-width:0.50000000000000000;stroke-linecap:square;stroke-linejoin:bevel;stroke-miterlimit:3;stroke-opacity:1;fill-opacity:1"
     d=""
     id="pgon92"
     inkscape:connector-curvature="0" />
  <path
     style="fill:#5a8006;stroke:#000000;stroke-width:0.50000000000000000;stroke-linecap:square;stroke-linejoin:bevel;stroke-miterlimit:3;stroke-opacity:1;fill-opacity:1"
     d=""
     id="pgon93"
     inkscape:connector-curvature="0" />
  <path
     style="fill:#5a8006;stroke:#000000;stroke-width:0.50000000000000000;stroke-linecap:square;stroke-linejoin:bevel;stroke-miterlimit:3;stroke-opacity:1;fill-opacity:1"
     d=""
     id="pgon94"
     inkscape:connector-curvature="0" />
  <path
     style="fill:#5a8006;stroke:#000000;stroke-width:0.50000000000000000;stroke-linecap:square;stroke-linejoin:bevel;stroke-miterlimit:3;stroke-opacity:1;fill-opacity:1"
     d=""
     id="pgon95"
     inkscape:connector-curvature="0" />
  <path
     style="fill:#5a8006;stroke:#000000;stroke-width:0.50000000000000000;stroke-linecap:square;stroke-linejoin:bevel;stroke-miterlimit:3;stroke-opacity:1;fill-opacity:1"
     d=""
     id="pgon96"
     inkscape:connector-curvature="0" />
  <path
     style="fill:#5a8006;stroke:#000000;stroke-width:0.50000000000000000;stroke-linecap:square;stroke-linejoin:bevel;stroke-miterlimit:3;stroke-opacity:1;fill-opacity:1"
     d=""
     id="pgon97"
     inkscape:connector-curvature="0" />
  <path
     style="fill:#5a8006;stroke:#000000;stroke-width:0.50000000000000000;stroke-linecap:square;stroke-linejoin:bevel;stroke-miterlimit:3;stroke-opacity:1;fill-opacity:1"
     d=""
     id="pgon98"
     inkscape:connector-curvature="0" />
  <path
     style="fill:#5a8006;stroke:#000000;stroke-width:0.50000000000000000;stroke-linecap:square;stroke-linejoin:bevel;stroke-miterlimit:3;stroke-opacity:1;fill-opacity:1"
     d=""
     id="pgon99"
     inkscape:connector-curvature="0" />
  <path
     style="fill:#5a8006;stroke:#000000;stroke-width:0.50000000000000000;stroke-linecap:square;stroke-linejoin:bevel;stroke-miterlimit:3;stroke-opacity:1;fill-opacity:1"
     d=""
     id="pgon100"
     inkscape:connector-curvature="0" />
  <path
     style="fill:#5a8006;stroke:#000000;stroke-width:0.50000000000000000;stroke-linecap:square;stroke-linejoin:bevel;stroke-miterlimit:3;stroke-opacity:1;fill-opacity:1"
     d=""
     id="pgon101"
     inkscape:connector-curvature="0" />
  <path
     style="fill:#5a8006;stroke:#000000;stroke-width:0.50000000000000000;stroke-linecap:square;stroke-linejoin:bevel;stroke-miterlimit:3;stroke-opacity:1;fill-opacity:1"
     d=""
     id="pgon102"
     inkscape:connector-curvature="0" />
  <path
     style="fill:#5a8006;stroke:#000000;stroke-width:0.50000000000000000;stroke-linecap:square;stroke-linejoin:bevel;stroke-miterlimit:3;stroke-opacity:1;fill-opacity:1"
     d=""
     id="pgon103"
     inkscape:connector-curvature="0" />
  <path
     style="fill:#5a8006;stroke:#000000;stroke-width:0.50000000000000000;stroke-linecap:square;stroke-linejoin:bevel;stroke-miterlimit:3;stroke-opacity:1;fill-opacity:1"
     d=""
     id="pgon104"
     inkscape:connector-curvature="0" />
  <path
     style="fill:#5a8006;stroke:#000000;stroke-width:0.50000000000000000;stroke-linecap:square;stroke-linejoin:bevel;stroke-miterlimit:3;stroke-opacity:1;fill-opacity:1"
     d=""
     id="pgon105"
     inkscape:connector-curvature="0" />
  <path
     style="fill:#5a8006;stroke:#000000;stroke-width:0.50000000000000000;stroke-linecap:square;stroke-linejoin:bevel;stroke-miterlimit:3;stroke-opacity:1;fill-opacity:1"
     d=""
     id="pgon106"
     inkscape:connector-curvature="0" />
  <path
     style="fill:#5a8006;stroke:#000000;stroke-width:0.50000000000000000;stroke-linecap:square;stroke-linejoin:bevel;stroke-miterlimit:3;stroke-opacity:1;fill-opacity:1"
     d=""
     id="pgon107"
     inkscape:connector-curvature="0" />
  <path
     style="fill:#5a8006;stroke:#000000;stroke-width:0.50000000000000000;stroke-linecap:square;stroke-linejoin:bevel;stroke-miterlimit:3;stroke-opacity:1;fill-opacity:1"
     d=""
     id="pgon108"
     inkscape:connector-curvature="0" />
  <path
     style="fill:#5a8006;stroke:#000000;stroke-width:0.50000000000000000;stroke-linecap:square;stroke-linejoin:bevel;stroke-miterlimit:3;stroke-opacity:1;fill-opacity:1"
     d=""
     id="pgon109"
     inkscape:connector-curvature="0" />
  <path
     style="fill:#5a8006;stroke:#000000;stroke-width:0.50000000000000000;stroke-linecap:square;stroke-linejoin:bevel;stroke-miterlimit:3;stroke-opacity:1;fill-opacity:1"
     d=""
     id="pgon110"
     inkscape:connector-curvature="0" />
  <path
     style="fill:#5a8006;stroke:#000000;stroke-width:0.50000000000000000;stroke-linecap:square;stroke-linejoin:bevel;stroke-miterlimit:3;stroke-opacity:1;fill-opacity:1"
     d=""
     id="pgon111"
     inkscape:connector-curvature="0" />
  <path
     style="fill:#5a8006;stroke:#000000;stroke-width:0.50000000000000000;stroke-linecap:square;stroke-linejoin:bevel;stroke-miterlimit:3;stroke-opacity:1;fill-opacity:1"
     d=""
     id="pgon112"
     inkscape:connector-curvature="0" />
  <path
     style="fill:#5a8006;stroke:#000000;stroke-width:0.50000000000000000;stroke-linecap:square;stroke-linejoin:bevel;stroke-miterlimit:3;stroke-opacity:1;fill-opacity:1"
     d=""
     id="pgon113"
     inkscape:connector-curvature="0" />
  <path
     style="fill:#5a8006;stroke:#000000;stroke-width:0.50000000000000000;stroke-linecap:square;stroke-linejoin:bevel;stroke-miterlimit:3;stroke-opacity:1;fill-opacity:1"
     d=""
     id="pgon114"
     inkscape:connector-curvature="0" />
  <path
     style="fill:#5a8006;stroke:#000000;stroke-width:0.50000000000000000;stroke-linecap:square;stroke-linejoin:bevel;stroke-miterlimit:3;stroke-opacity:1;fill-opacity:1"
     d=""
     id="pgon115"
     inkscape:connector-curvature="0" />
  <path
     style="fill:#5a8006;stroke:#000000;stroke-width:0.50000000000000000;stroke-linecap:square;stroke-linejoin:bevel;stroke-miterlimit:3;stroke-opacity:1;fill-opacity:1"
     d=""
     id="pgon116"
     inkscape:connector-curvature="0" />
  <path
     style="fill:#5a8006;stroke:#000000;stroke-width:0.50000000000000000;stroke-linecap:square;stroke-linejoin:bevel;stroke-miterlimit:3;stroke-opacity:1;fill-opacity:1"
     d=""
     id="pgon117"
     inkscape:connector-curvature="0" />
  <path
     style="fill:#5a8006;stroke:#000000;stroke-width:0.50000000000000000;stroke-linecap:square;stroke-linejoin:bevel;stroke-miterlimit:3;stroke-opacity:1;fill-opacity:1"
     d=""
     id="pgon118"
     inkscape:connector-curvature="0" />
  <path
     style="fill:#5a8006;stroke:#000000;stroke-width:0.50000000000000000;stroke-linecap:square;stroke-linejoin:bevel;stroke-miterlimit:3;stroke-opacity:1;fill-opacity:1"
     d=""
     id="pgon119"
     inkscape:connector-curvature="0" />
  <path
     style="fill:#5a8006;stroke:#000000;stroke-width:0.50000000000000000;stroke-linecap:square;stroke-linejoin:bevel;stroke-miterlimit:3;stroke-opacity:1;fill-opacity:1"
     d=""
     id="pgon120"
     inkscape:connector-curvature="0" />
  <path
     style="fill:#5a8006;stroke:#000000;stroke-width:0.50000000000000000;stroke-linecap:square;stroke-linejoin:bevel;stroke-miterlimit:3;stroke-opacity:1;fill-opacity:1"
     d=""
     id="pgon121"
     inkscape:connector-curvature="0" />
  <path
     style="fill:#5a8006;stroke:#000000;stroke-width:0.50000000000000000;stroke-linecap:square;stroke-linejoin:bevel;stroke-miterlimit:3;stroke-opacity:1;fill-opacity:1"
     d=""
     id="pgon122"
     inkscape:connector-curvature="0" />
  <path
     style="fill:#5a8006;stroke:#000000;stroke-width:0.50000000000000000;stroke-linecap:square;stroke-linejoin:bevel;stroke-miterlimit:3;stroke-opacity:1;fill-opacity:1"
     d=""
     id="pgon123"
     inkscape:connector-curvature="0" />
  <path
     style="fill:#5a8006;stroke:#000000;stroke-width:0.50000000000000000;stroke-linecap:square;stroke-linejoin:bevel;stroke-miterlimit:3;stroke-opacity:1;fill-opacity:1"
     d=""
     id="pgon124"
     inkscape:connector-curvature="0" />
  <path
     style="fill:#5a8006;stroke:#000000;stroke-width:0.50000000000000000;stroke-linecap:square;stroke-linejoin:bevel;stroke-miterlimit:3;stroke-opacity:1;fill-opacity:1"
     d=""
     id="pgon125"
     inkscape:connector-curvature="0" />
  <path
     style="fill:#5a8006;stroke:#000000;stroke-width:0.50000000000000000;stroke-linecap:square;stroke-linejoin:bevel;stroke-miterlimit:3;stroke-opacity:1;fill-opacity:1"
     d=""
     id="pgon126"
     inkscape:connector-curvature="0" />
  <path
     style="fill:#5a8006;stroke:#000000;stroke-width:0.50000000000000000;stroke-linecap:square;stroke-linejoin:bevel;stroke-miterlimit:3;stroke-opacity:1;fill-opacity:1"
     d=""
     id="pgon127"
     inkscape:connector-curvature="0" />
  <path
     style="fill:#5a8006;stroke:#000000;stroke-width:0.50000000000000000;stroke-linecap:square;stroke-linejoin:bevel;stroke-miterlimit:3;stroke-opacity:1;fill-opacity:1"
     d=""
     id="pgon128"
     inkscape:connector-curvature="0" />
  <path
     style="fill:#5a8006;stroke:#000000;stroke-width:0.50000000000000000;stroke-linecap:square;stroke-linejoin:bevel;stroke-miterlimit:3;stroke-opacity:1;fill-opacity:1"
     d=""
     id="pgon129"
     inkscape:connector-curvature="0" />
  <path
     style="fill:#5a8006;stroke:#000000;stroke-width:0.50000000000000000;stroke-linecap:square;stroke-linejoin:bevel;stroke-miterlimit:3;stroke-opacity:1;fill-opacity:1"
     d=""
     id="pgon130"
     inkscape:connector-curvature="0" />
  <path
     style="fill:#5a8006;stroke:#000000;stroke-width:0.50000000000000000;stroke-linecap:square;stroke-linejoin:bevel;stroke-miterlimit:3;stroke-opacity:1;fill-opacity:1"
     d=""
     id="pgon131"
     inkscape:connector-curvature="0" />
  <path
     style="fill:#5a8006;stroke:#000000;stroke-width:0.50000000000000000;stroke-linecap:square;stroke-linejoin:bevel;stroke-miterlimit:3;stroke-opacity:1;fill-opacity:1"
     d=""
     id="pgon132"
     inkscape:connector-curvature="0" />
  <path
     style="fill:#5a8006;stroke:#000000;stroke-width:0.50000000000000000;stroke-linecap:square;stroke-linejoin:bevel;stroke-miterlimit:3;stroke-opacity:1;fill-opacity:1"
     d=""
     id="pgon133"
     inkscape:connector-curvature="0" />
  <path
     style="fill:#5a8006;stroke:#000000;stroke-width:0.50000000000000000;stroke-linecap:square;stroke-linejoin:bevel;stroke-miterlimit:3;stroke-opacity:1;fill-opacity:1"
     d=""
     id="pgon134"
     inkscape:connector-curvature="0" />
  <path
     style="fill:#5a8006;stroke:#000000;stroke-width:0.50000000000000000;stroke-linecap:square;stroke-linejoin:bevel;stroke-miterlimit:3;stroke-opacity:1;fill-opacity:1"
     d=""
     id="pgon135"
     inkscape:connector-curvature="0" />
  <path
     style="fill:#5a8006;stroke:#000000;stroke-width:0.50000000000000000;stroke-linecap:square;stroke-linejoin:bevel;stroke-miterlimit:3;stroke-opacity:1;fill-opacity:1"
     d=""
     id="pgon136"
     inkscape:connector-curvature="0" />
  <path
     style="fill:#5a8006;stroke:#000000;stroke-width:0.50000000000000000;stroke-linecap:square;stroke-linejoin:bevel;stroke-miterlimit:3;stroke-opacity:1;fill-opacity:1"
     d=""
     id="pgon137"
     inkscape:connector-curvature="0" />
  <path
     style="fill:#5a8006;stroke:#000000;stroke-width:0.50000000000000000;stroke-linecap:square;stroke-linejoin:bevel;stroke-miterlimit:3;stroke-opacity:1;fill-opacity:1"
     d=""
     id="pgon138"
     inkscape:connector-curvature="0" />
  <!-- 
	Generated using the Perl SVG Module V2.59
	by Ronan Oger
	Info: http://www.roitsystems.com/
 -->
</svg>
